<?xml version="1.0" encoding="UTF-8"?>
<svg version="1.1" xmlns="http://www.w3.org/2000/svg" width="349" height="247">
<path d="M0 0 C1.34180161 0.00113184 2.68360569 0.00048808 4.02540588 -0.00177002 C7.62391908 -0.00290502 11.22188523 0.02040389 14.82027268 0.04852581 C18.59716821 0.07374514 22.37408001 0.07589747 26.15104675 0.08062744 C33.28350894 0.09299752 40.41572219 0.12573705 47.54807538 0.1660254 C55.67636101 0.21093044 63.80465931 0.23277695 71.93303835 0.25280714 C88.63543562 0.294476 105.33758337 0.36471013 122.03979492 0.45410156 C122.06326651 14.53725556 122.08077688 28.62040647 122.09160709 42.70357609 C122.09680721 49.24420415 122.10385225 55.784819 122.11523438 62.32543945 C122.12616587 68.64726833 122.13209335 74.96908456 122.13467216 81.29092216 C122.13650802 83.69281653 122.1400927 86.09471027 122.14552498 88.4965992 C122.15287194 91.88226905 122.15378018 95.26788781 122.15332031 98.65356445 C122.15691559 99.62821655 122.16051086 100.60286865 122.16421509 101.60705566 C122.15261881 109.58873723 121.63591565 117.49767625 121.03979492 125.45410156 C120.01826639 125.45556812 118.99673786 125.45703468 117.94425392 125.45854568 C93.07196429 125.49516368 68.19980907 125.55464354 43.327631 125.6380043 C31.2995545 125.6777896 19.27154338 125.71018474 7.2434082 125.72509766 C-3.24204587 125.73811674 -13.72735606 125.76508817 -24.2127291 125.80871463 C-29.76310181 125.83132344 -35.31329709 125.84701258 -40.86371994 125.84598541 C-46.09225769 125.84523847 -51.3204033 125.86320332 -56.54883957 125.89526939 C-58.46356416 125.90375989 -60.37833277 125.90552412 -62.29306793 125.89990425 C-76.11157785 125.77604658 -76.11157785 125.77604658 -88.96020508 130.45410156 C-89.68212729 130.79219471 -90.40404949 131.13028786 -91.14784813 131.47862625 C-93.56274352 132.7784093 -93.89841824 133.9366306 -94.96020508 136.45410156 C-95.49194336 137.47334717 -96.02368164 138.49259277 -96.5715332 139.54272461 C-102.57842676 151.16320321 -107.53554532 163.15628094 -112.46020508 175.26660156 C-113.27081438 177.24926419 -114.08201009 179.23168718 -114.89379883 181.21386719 C-115.29297012 182.18873581 -115.69214142 183.16360443 -116.10340881 184.16801453 C-117.67496479 188.00429374 -119.24744999 191.84019006 -120.82150269 195.67544556 C-121.57706087 197.51915495 -122.33060089 199.36369276 -123.08206177 201.20907593 C-124.14002456 203.80405847 -125.20720194 206.39506913 -126.27661133 208.98535156 C-126.584375 209.74616531 -126.89213867 210.50697906 -127.20922852 211.29084778 C-133.22627841 225.76677738 -144.25918035 236.19090773 -157.96020508 243.45410156 C-179.81655427 250.73955129 -203.92159015 247.45410156 -226.96020508 247.45410156 C-226.96020508 206.53410156 -226.96020508 165.61410156 -226.96020508 123.45410156 C-170.21020508 123.14160156 -170.21020508 123.14160156 -152.34790039 123.06616211 C-147.02449123 123.02956104 -147.02449123 123.02956104 -141.70111084 122.98908997 C-139.34583529 122.97303079 -136.99051628 122.96268165 -134.63519287 122.95698547 C-131.04961203 122.94717217 -127.46459056 122.91874879 -123.87915039 122.88647461 C-122.32787382 122.88861355 -122.32787382 122.88861355 -120.74525833 122.89079571 C-110.12593344 122.75532524 -98.89087361 121.1119451 -90.96020508 113.45410156 C-88.94592754 110.52167812 -87.71475482 107.45986455 -86.46020508 104.14160156 C-86.06913574 103.1810083 -85.67806641 102.22041504 -85.27514648 101.23071289 C-84.36145931 98.98403906 -83.45956908 96.73254766 -82.56665039 94.47753906 C-79.62223833 87.0610114 -76.51800878 79.70863432 -73.45458984 72.34072876 C-72.36476114 69.71286889 -71.28149865 67.08240579 -70.20043945 64.45092773 C-66.77481039 56.12277315 -63.300399 47.81815859 -59.68286133 39.57128906 C-59.20851151 38.47647469 -59.20851151 38.47647469 -58.72457886 37.35954285 C-52.36783388 23.01578193 -41.364099 10.9169841 -26.96020508 4.45410156 C-17.82941289 1.02186391 -9.71323725 -0.11403381 0 0 Z " fill="#EEEEEE" transform="translate(226.960205078125,-0.4541015625)"/>
<path d="M0 0 C1.10151823 -0.0003616 1.10151823 -0.0003616 2.22528934 -0.00073051 C4.57813638 0.00075002 6.93065768 0.01592413 9.28344727 0.03173828 C10.74572599 0.03468264 12.20800683 0.03672066 13.67028809 0.0378418 C19.06350892 0.04828366 24.45668449 0.0762062 29.84985352 0.10205078 C41.91547852 0.14330078 53.98110352 0.18455078 66.41235352 0.22705078 C66.41235352 29.59705078 66.41235352 58.96705078 66.41235352 89.22705078 C25.16235352 89.22705078 -16.08764648 89.22705078 -58.58764648 89.22705078 C-51.69660322 70.85093542 -51.69660322 70.85093542 -49.07202148 64.63330078 C-48.62567856 63.56506577 -48.62567856 63.56506577 -48.1703186 62.47525024 C-47.22913113 60.22456322 -46.28377417 57.97566503 -45.33764648 55.72705078 C-44.01141812 52.56849331 -42.68621679 49.40950551 -41.36108398 46.25048828 C-41.03657257 45.47784637 -40.71206116 44.70520447 -40.37771606 43.90914917 C-38.40632524 39.20781347 -36.47069442 34.49414539 -34.56420898 29.76611328 C-34.11851562 28.66847656 -33.67282227 27.57083984 -33.21362305 26.43994141 C-32.40742783 24.44994197 -31.60926624 22.45665959 -30.82104492 20.45947266 C-28.09924932 13.78115149 -25.07781563 8.33312836 -18.71264648 4.47705078 C-18.09647461 4.09033203 -17.48030273 3.70361328 -16.84545898 3.30517578 C-11.31048738 0.66217896 -6.08020473 -0.02078702 0 0 Z " fill="#EEEEEE" transform="translate(184.587646484375,157.77294921875)"/>
</svg>
